HIERARCHY
ROOT Hips
{
	OFFSET 0.00000 0.00000 0.00000
	CHANNELS 6 Xposition Yposition Zposition Zrotation Yrotation Xrotation 
	JOINT LHipJoint
	{
		OFFSET 0 0 0
		CHANNELS 3 Zrotation Yrotation Xrotation
		JOINT LeftUpLeg
		{
			OFFSET 1.57338 -1.94743 0.52196
			CHANNELS 3 Zrotation Yrotation Xrotation
			JOINT LeftLeg
			{
				OFFSET 2.60333 -7.15259 0.00000
				CHANNELS 3 Zrotation Yrotation Xrotation
				JOINT LeftFoot
				{
					OFFSET 2.77855 -7.63400 0.00000
					CHANNELS 3 Zrotation Yrotation Xrotation
					JOINT LeftToeBase
					{
						OFFSET 0.19847 -0.54529 2.28466
						CHANNELS 3 Zrotation Yrotation Xrotation
						End Site
						{
							OFFSET 0.00000 -0.00000 1.17993
						}
					}
				}
			}
		}
	}
	JOINT RHipJoint
	{
		OFFSET 0 0 0
		CHANNELS 3 Zrotation Yrotation Xrotation
		JOINT RightUpLeg
		{
			OFFSET -1.61527 -1.94743 0.52196
			CHANNELS 3 Zrotation Yrotation Xrotation
			JOINT RightLeg
			{
				OFFSET -2.53829 -6.97390 0.00000
				CHANNELS 3 Zrotation Yrotation Xrotation
				JOINT RightFoot
				{
					OFFSET -2.80762 -7.71387 0.00000
					CHANNELS 3 Zrotation Yrotation Xrotation
					JOINT RightToeBase
					{
						OFFSET -0.30536 -0.83898 2.28801
						CHANNELS 3 Zrotation Yrotation Xrotation
						End Site
						{
							OFFSET -0.00000 -0.00000 1.21323
						}
					}
				}
			}
		}
	}
	JOINT LowerBack
	{
		OFFSET 0 0 0
		CHANNELS 3 Zrotation Yrotation Xrotation
		JOINT Spine
		{
			OFFSET -0.04381 1.99497 -0.19778
			CHANNELS 3 Zrotation Yrotation Xrotation
			JOINT Spine1
			{
				OFFSET -0.01959 2.01295 -0.04372
				CHANNELS 3 Zrotation Yrotation Xrotation
				JOINT Neck
				{
					OFFSET 0 0 0
					CHANNELS 3 Zrotation Yrotation Xrotation
					JOINT Neck1
					{
						OFFSET -0.05459 1.76913 0.09708
						CHANNELS 3 Zrotation Yrotation Xrotation
						JOINT Head
						{
							OFFSET 0.09461 1.77368 -0.11172
							CHANNELS 3 Zrotation Yrotation Xrotation
							End Site
							{
								OFFSET 0.03812 1.78157 -0.04834
							}
						}
					}
				}
				JOINT LeftShoulder
				{
					OFFSET 0 0 0
					CHANNELS 3 Zrotation Yrotation Xrotation
					JOINT LeftArm
					{
						OFFSET 3.50922 1.24034 -0.28866
						CHANNELS 3 Zrotation Yrotation Xrotation
						JOINT LeftForeArm
						{
							OFFSET 5.40188 -0.00000 0.00000
							CHANNELS 3 Zrotation Yrotation Xrotation
							JOINT LeftHand
							{
								OFFSET 3.68559 -0.00000 0.00000
								CHANNELS 3 Zrotation Yrotation Xrotation
								JOINT LeftFingerBase
								{
									OFFSET 0 0 0
									CHANNELS 3 Zrotation Yrotation Xrotation
									JOINT LeftHandIndex1
									{
										OFFSET 0.61753 -0.00000 0.00000
										CHANNELS 3 Zrotation Yrotation Xrotation
										End Site
										{
											OFFSET 0.49787 -0.00000 0.00000
										}
									}
								}
								JOINT LThumb
								{
									OFFSET 0 0 0
									CHANNELS 3 Zrotation Yrotation Xrotation
									End Site
									{
										OFFSET 0.50547 -0.00000 0.50547
									}
								}
							}
						}
					}
				}
				JOINT RightShoulder
				{
					OFFSET 0 0 0
					CHANNELS 3 Zrotation Yrotation Xrotation
					JOINT RightArm
					{
						OFFSET -2.95373 1.39649 -0.27346
						CHANNELS 3 Zrotation Yrotation Xrotation
						JOINT RightForeArm
						{
							OFFSET -6.10670 -0.00000 -0.00000
							CHANNELS 3 Zrotation Yrotation Xrotation
							JOINT RightHand
							{
								OFFSET -3.63052 -0.00000 0.00000
								CHANNELS 3 Zrotation Yrotation Xrotation
								JOINT RightFingerBase
								{
									OFFSET 0 0 0
									CHANNELS 3 Zrotation Yrotation Xrotation
									JOINT RightHandIndex1
									{
										OFFSET -0.58385 -0.00000 0.00000
										CHANNELS 3 Zrotation Yrotation Xrotation
										End Site
										{
											OFFSET -0.47071 -0.00000 0.00000
										}
									}
								}
								JOINT RThumb
								{
									OFFSET 0 0 0
									CHANNELS 3 Zrotation Yrotation Xrotation
									End Site
									{
										OFFSET -0.47790 -0.00000 0.47790
									}
								}
							}
						}
					}
				}
			}
		}
	}
}
MOTION
Frames: 11
Frame Time: .0083333
1.3378 15.5554 -8.2729 -177.6000 216.3330 -207.3890 0.0000 0.0000 0.0000 -8.1104 15.2304 -76.9296 36.2186 11.8637 144.7484 0.1279 -11.3688 -9.7291 0.0644 1.6368 4.5030 0.0000 0.0000 0.0000 3.8400 -36.5991 -83.9778 -37.1000 -10.5314 149.2847 -0.1252 7.1524 -7.5292 -0.2660 -3.3177 9.1647 -2.6892 2.0520 31.6264 -0.6734 1.1921 14.0863 0.4309 0.2260 -1.3156 -6.8070 -1.2176 -8.6375 7.0626 -1.0858 -1.9902 3.4777 -0.4102 0.9730 -0.0000 0.0000 0.0000 -56.6606 -33.5192 58.7935 61.5502 -56.7091 -35.6340 -0.0000 -0.0000 1.6664 31.2547 12.3103 7.3731 -7.1250 0.0000 -0.0000 3.7131 44.2683 -0.0672 -0.0000 0.0000 0.0000 61.3501 16.6138 43.6627 -79.9298 59.6133 -51.2903 0.0000 0.0000 18.8039 -55.9347 5.5908 -8.1988 7.1250 -0.0000 -0.0000 -20.6506 -20.2956 -13.0702
1.3338 15.5640 -8.2670 -177.3610 216.4910 -207.5870 0.0000 0.0000 0.0000 -8.0152 15.3285 -76.6803 36.1828 11.9131 144.5747 0.0459 -12.2306 -9.1932 0.0797 1.8212 5.0117 0.0000 0.0000 0.0000 3.5532 -36.5528 -83.7746 -37.0904 -10.5473 149.2322 -0.1135 7.3298 -7.4019 -0.2723 -3.3568 9.2737 -2.8230 2.1185 31.5973 -0.6962 1.2355 14.1070 0.4691 0.2402 -1.2814 -6.9063 -1.2508 -8.5409 6.9906 -1.1177 -2.2251 3.4688 -0.4287 0.8818 -0.0000 0.0000 0.0000 -56.7456 -33.3899 58.8628 61.6158 -56.7253 -35.6888 -0.0000 -0.0000 1.8102 31.3457 12.4541 7.4834 -7.1250 0.0000 -0.0000 3.7908 44.4456 -0.0519 -0.0000 0.0000 0.0000 61.3187 16.5597 43.7466 -79.9466 59.6146 -51.3048 0.0000 0.0000 18.8558 -56.2182 5.0349 -7.4738 7.1250 -0.0000 -0.0000 -21.0158 -21.1474 -12.8973
1.3294 15.5679 -8.2656 -177.3190 216.6300 -207.5990 0.0000 0.0000 0.0000 -7.7954 15.4416 -76.6317 36.1698 11.9310 144.5118 -0.0213 -12.9094 -8.7802 0.0707 1.7149 4.7183 0.0000 0.0000 0.0000 3.5804 -36.3394 -83.7124 -37.0847 -10.5567 149.2011 -0.1109 7.2761 -7.3310 -0.2860 -3.4390 9.5036 -2.8617 2.1693 31.6020 -0.6670 1.2880 14.1097 0.5071 0.2624 -1.2828 -6.8773 -1.3055 -8.4908 6.8208 -1.1862 -2.4985 3.3997 -0.4668 0.7863 0.0000 -0.0000 0.0000 -56.7649 -33.3386 58.8644 61.6627 -56.7369 -35.7280 -0.0000 -0.0000 2.0752 31.4891 12.8543 7.7601 -7.1250 0.0000 -0.0000 3.9049 44.9252 -0.0072 0.0000 -0.0000 0.0000 61.2837 16.5141 43.7354 -80.0295 59.6210 -51.3762 0.0000 0.0000 18.9969 -55.9513 4.8706 -7.1616 7.1250 -0.0000 -0.0000 -20.8981 -21.4733 -12.6467
1.3252 15.5669 -8.2675 -177.4390 216.7630 -207.5040 0.0000 0.0000 0.0000 -7.4222 15.5338 -76.6984 36.1627 11.9407 144.4775 -0.0886 -13.4902 -8.3292 0.0668 1.6678 4.5883 0.0000 0.0000 0.0000 3.8763 -36.0028 -83.7626 -37.0815 -10.5620 149.1836 -0.1162 7.0355 -7.3170 -0.2889 -3.4564 9.5521 -2.7745 2.1726 31.6591 -0.6408 1.3132 14.1014 0.4775 0.2777 -1.3172 -6.8448 -1.3733 -8.4427 6.7388 -1.2744 -2.7573 3.3603 -0.5135 0.6987 -0.0000 0.0000 0.0000 -56.6290 -33.3477 58.8582 61.7538 -56.7594 -35.8042 -0.0000 -0.0000 2.2624 31.6938 12.9421 7.8736 -7.1250 0.0000 -0.0000 4.0933 45.0544 0.0055 -0.0000 0.0000 0.0000 61.3393 16.5263 43.7039 -80.0813 59.6250 -51.4209 0.0000 0.0000 19.1258 -55.4631 5.3551 -7.7225 7.1250 -0.0000 -0.0000 -20.4240 -20.7838 -12.6633
1.3213 15.5699 -8.2666 -177.5970 216.9910 -207.4620 0.0000 0.0000 0.0000 -6.9129 15.8308 -76.5494 36.1407 11.9707 144.3715 -0.1681 -14.1714 -7.8292 0.0893 1.9269 5.3036 0.0000 0.0000 0.0000 4.1153 -35.7146 -83.5727 -37.0718 -10.5778 149.1311 -0.1187 6.9845 -7.3411 -0.3057 -3.5546 9.8268 -2.5931 2.1662 31.7086 -0.6233 1.3501 14.1281 0.3808 0.3016 -1.3065 -6.9536 -1.3904 -8.4386 6.8519 -1.2836 -2.9214 3.4200 -0.5163 0.6483 0.0000 -0.0000 0.0000 -56.4824 -33.3556 58.8710 61.9040 -56.7963 -35.9299 -0.0000 -0.0000 2.2398 31.9892 13.1155 8.0669 -7.1250 0.0000 -0.0000 4.3640 45.2952 0.0319 0.0000 -0.0000 0.0000 61.4052 16.5669 43.7087 -80.0500 59.6226 -51.3940 0.0000 0.0000 19.1746 -55.2240 5.7498 -8.2098 7.1250 -0.0000 -0.0000 -20.1443 -20.1970 -12.7529
1.3171 15.5749 -8.2620 -177.6660 217.2060 -207.4280 0.0000 0.0000 0.0000 -6.5562 16.1239 -76.3944 36.1183 12.0013 144.2634 -0.2263 -14.7107 -7.5272 0.0951 1.9891 5.4755 0.0000 0.0000 0.0000 4.2028 -35.5884 -83.4107 -37.0667 -10.5863 149.1029 -0.1157 7.0989 -7.3377 -0.3361 -3.7256 10.3059 -2.4384 2.1585 31.6126 -0.6305 1.3838 14.1735 0.2754 0.3236 -1.2109 -7.0870 -1.3780 -8.4106 6.9904 -1.2528 -3.0724 3.4950 -0.4989 0.5955 -0.0000 0.0000 0.0000 -56.3723 -33.3819 58.8856 61.9422 -56.8057 -35.9618 -0.0000 -0.0000 2.1420 32.2014 13.3282 8.2605 -7.1250 0.0000 -0.0000 4.5555 45.5712 0.0644 -0.0000 0.0000 0.0000 61.4382 16.6075 43.7493 -80.0263 59.6208 -51.3735 0.0000 0.0000 19.1725 -54.7123 5.8774 -8.2330 7.1250 -0.0000 -0.0000 -19.7753 -20.1056 -12.5317
1.3135 15.5733 -8.2587 -177.7180 217.2990 -207.3370 0.0000 0.0000 0.0000 -6.3580 16.2061 -76.4196 36.1111 12.0110 144.2291 -0.2634 -15.0274 -7.3230 0.0888 1.9218 5.2897 0.0000 0.0000 0.0000 4.3177 -35.5351 -83.5031 -37.0733 -10.5755 149.1389 -0.1141 7.0927 -7.3060 -0.3577 -3.8420 10.6327 -2.3178 2.1375 31.5084 -0.6425 1.3938 14.1904 0.1918 0.3344 -1.1443 -7.0535 -1.3917 -8.3819 6.9606 -1.2716 -3.2127 3.4769 -0.5097 0.5456 0.0000 -0.0000 0.0000 -56.2691 -33.4353 58.9824 61.8265 -56.7773 -35.8650 -0.0000 -0.0000 2.3586 32.4093 13.4515 8.4007 -7.1250 0.0000 -0.0000 4.7479 45.7438 0.0874 0.0000 -0.0000 0.0000 61.4757 16.6317 43.7236 -80.0031 59.6190 -51.3535 0.0000 0.0000 19.2467 -53.6072 6.2058 -8.3437 7.1250 -0.0000 -0.0000 -18.9621 -19.8280 -12.0787
1.3106 15.5672 -8.2589 -177.7580 217.3090 -207.2650 0.0000 0.0000 0.0000 -6.2496 16.1592 -76.5074 36.1142 12.0069 144.2438 -0.2873 -15.1545 -7.1194 0.0858 1.8897 5.2008 0.0000 0.0000 0.0000 4.4108 -35.5400 -83.6638 -37.0847 -10.5567 149.2011 -0.1129 7.0366 -7.2576 -0.3720 -3.9175 10.8447 -2.2774 2.1171 31.5122 -0.6517 1.3782 14.1951 0.1633 0.3287 -1.1394 -6.9740 -1.3820 -8.4074 6.9085 -1.2613 -3.3127 3.4433 -0.5057 0.5152 -0.0000 0.0000 0.0000 -56.1655 -33.4455 59.0513 61.7027 -56.7468 -35.7615 -0.0000 -0.0000 2.8747 32.6756 13.6475 8.6055 -7.1250 0.0000 -0.0000 4.9939 46.0098 0.1248 -0.0000 0.0000 0.0000 61.5017 16.6751 43.6857 -80.0349 59.6214 -51.3810 0.0000 0.0000 19.4164 -52.7750 6.4682 -8.4343 7.1250 -0.0000 -0.0000 -18.3460 -19.6004 -11.7405
1.3079 15.5619 -8.2582 -177.7410 217.3090 -207.2520 0.0000 0.0000 0.0000 -6.2087 16.1349 -76.5584 36.1195 11.9996 144.2693 -0.3000 -15.2148 -7.0042 0.0643 1.6355 4.4994 0.0000 0.0000 0.0000 4.4793 -35.5764 -83.7879 -37.0907 -10.5467 149.2341 -0.1063 7.0046 -7.1232 -0.4027 -4.0742 11.2856 -2.2822 2.1124 31.5254 -0.6433 1.3697 14.2156 0.1778 0.3230 -1.1216 -7.0598 -1.3660 -8.3386 6.9454 -1.2305 -3.5070 3.4735 -0.4905 0.4392 0.0000 -0.0000 0.0000 -56.1346 -33.4472 59.0409 61.7049 -56.7474 -35.7633 -0.0000 -0.0000 3.0609 32.7274 13.7620 8.6923 -7.1250 0.0000 -0.0000 5.0388 46.1504 0.1434 0.0000 -0.0000 0.0000 61.4193 16.7163 43.6632 -80.1405 59.6295 -51.4721 0.0000 0.0000 19.4952 -52.5292 6.4547 -8.3436 7.1250 -0.0000 -0.0000 -18.1895 -19.6732 -11.5978
1.3058 15.5591 -8.2557 -177.6090 217.2740 -207.3640 0.0000 0.0000 0.0000 -6.2591 16.0903 -76.4487 36.1150 12.0057 144.2477 -0.3136 -15.3333 -6.9364 0.0491 1.4298 3.9321 0.0000 0.0000 0.0000 4.3774 -35.7731 -83.7937 -37.0931 -10.5429 149.2468 -0.0893 7.1158 -6.8574 -0.4716 -4.4042 12.2168 -2.3484 2.1187 31.5535 -0.6461 1.3563 14.2517 0.2167 0.3118 -1.0927 -7.1735 -1.3711 -8.1773 6.9523 -1.2282 -3.8032 3.4976 -0.4909 0.3159 -0.0000 -0.0000 0.0000 -56.1487 -33.4359 59.0108 61.7789 -56.7656 -35.8252 -0.0000 -0.0000 2.8913 32.7788 13.9478 8.8226 -7.1250 0.0000 -0.0000 5.0803 46.3737 0.1727 -0.0000 -0.0000 0.0000 61.3380 16.8265 43.6440 -80.0201 59.6203 -51.3682 0.0000 0.0000 19.5101 -52.3530 6.1781 -7.9421 7.1250 -0.0000 -0.0000 -18.1515 -20.1324 -11.3726
1.3029 15.5575 -8.2537 -177.3660 217.1960 -207.5710 0.0000 0.0000 0.0000 -6.4325 16.0068 -76.2488 36.1028 12.0224 144.1888 -0.3239 -15.4289 -6.8918 0.0523 1.4752 4.0573 0.0000 0.0000 0.0000 4.0258 -36.1511 -83.7366 -37.1012 -10.5293 149.2915 -0.0706 7.3614 -6.6261 -0.5357 -4.6897 13.0256 -2.5185 2.1196 31.6182 -0.7125 1.3019 14.2801 0.2568 0.2774 -1.0875 -7.1369 -1.3552 -8.0303 6.8823 -1.2117 -4.0540 3.4663 -0.4862 0.2065 0.0000 -0.0000 0.0000 -56.0969 -33.3342 58.8797 61.8229 -56.7764 -35.8620 -0.0000 -0.0000 2.7599 32.9401 14.0944 8.9663 -7.1250 0.0000 -0.0000 5.2295 46.5684 0.2030 0.0000 -0.0000 0.0000 61.3654 16.9747 43.7201 -79.7897 59.6024 -51.1694 0.0000 0.0000 19.5642 -52.2762 5.9061 -7.5771 7.1250 -0.0000 -0.0000 -18.1768 -20.5629 -11.2033
